<svg id="Layer_1" data-name="Layer 1" xmlns="http://www.w3.org/2000/svg" viewBox="0 0 25 25"><defs><style>.cls-1{fill:#fff;}</style></defs><title>Icono-Facebook-Contacto-25x25</title><g id="rwMTj5.tif"><g id="Group_121" data-name="Group 121"><path id="Path_382" data-name="Path 382" class="cls-1" d="M12.5,0A12.5,12.5,0,0,1,25,12.49v0A12.49,12.49,0,0,1,12.5,25h0A12.49,12.49,0,0,1,0,12.52v0A12.5,12.5,0,0,1,12.5,0ZM16,4.74c-.93,0-1.84,0-2.75,0a2.76,2.76,0,0,0-2.73,2.34,16.28,16.28,0,0,0-.12,2.21c0,.13,0,.27,0,.44H8.92v2.73h1.52v7.69h3.2v-7.7h2.17l.28-2.73H13.63V8.24c0-.66.21-.86.88-.86H16Z"/></g></g></svg>