<svg id="Layer_1" data-name="Layer 1" xmlns="http://www.w3.org/2000/svg" viewBox="0 0 126 100"><defs><style>.cls-1{fill:#fff;}</style></defs><title>Logo-Contacto-126x100</title><g id="Group_36" data-name="Group 36"><g id="Group_35" data-name="Group 35"><g id="Group_34" data-name="Group 34"><path id="Path_6" data-name="Path 6" class="cls-1" d="M48.09,36.3a46.88,46.88,0,0,1,15-26.09A46.87,46.87,0,0,1,77.89,35.62a71.83,71.83,0,0,1,7.5-2.92A55,55,0,0,0,65.49,1.9L63.05,0,60.62,1.9a54.89,54.89,0,0,0-20,31.28A71.93,71.93,0,0,1,48.09,36.3Z"/><path id="Path_7" data-name="Path 7" class="cls-1" d="M124.62,42.26l-.54-2.54-2.53-.53A63,63,0,0,0,63.84,56.32l-.84.86-.84-.86A63,63,0,0,0,4.45,39.19l-2.53.53-.54,2.54A63.05,63.05,0,0,0,18.5,100l5.63-5.63A55,55,0,0,1,8.68,46.49,55,55,0,0,1,56.53,61.94c.44.44.87.89,1.29,1.34a49.42,49.42,0,0,1,6.73,8.83l.24.39.13.2v0c.48.79.94,1.59,1.37,2.42.86,1.62,1.65,3.31,2.34,5a6.22,6.22,0,0,1-.42,5.51A6,6,0,0,1,63,88.59h0a6,6,0,0,1-5.21-3,6.2,6.2,0,0,1-.4-5.47c.61-1.5,1.3-3,2-4.4l-6.35-5-.37.66A60.23,60.23,0,0,0,50,77.17,14.18,14.18,0,0,0,51,89.71a13.93,13.93,0,0,0,12,6.84h0a13.92,13.92,0,0,0,12-6.82,14.14,14.14,0,0,0,1-12.58q-1.2-2.94-2.68-5.74a61.86,61.86,0,0,0-5.14-8.13c.42-.45.85-.9,1.29-1.34a55,55,0,0,1,47.85-15.45,55.06,55.06,0,0,1-15.44,47.88L107.5,100A63.05,63.05,0,0,0,124.62,42.26Z"/></g></g></g></svg>