<svg id="Layer_1" data-name="Layer 1" xmlns="http://www.w3.org/2000/svg" viewBox="0 0 84 66"><defs><style>.cls-1{fill:#fff;}</style></defs><title>Icono-Liga-LigaMx</title><path class="cls-1" d="M66.53,39.91s-7.41-13.79-12.94-19.2c0,0,7.67-10.67,8.16-12.4,0,0,4-3.52-2.72-7,0,0-7-3-10.72.33,0,0-2.89,2.57-6.3,5.87-3.41-3.3-6.3-5.87-6.3-5.87C32-1.78,25,1.26,25,1.26c-6.68,3.53-2.72,7.05-2.72,7.05.49,1.73,8.16,12.4,8.16,12.4-5.52,5.41-12.94,19.2-12.94,19.2a7.2,7.2,0,0,0,1.6,9.27c7.12,5.42,11.17,1.24,11.17,1.24q6.09-6.81,11.75-14,5.67,7.17,11.75,14s4.05,4.18,11.17-1.24A7.2,7.2,0,0,0,66.53,39.91Z"/><polygon class="cls-1" points="18.16 57.86 16.12 57.86 16.12 65.75 22.05 65.75 22.05 63.91 18.16 63.91 18.16 57.86"/><rect class="cls-1" x="22.95" y="57.86" width="2.31" height="7.89"/><path class="cls-1" d="M30.59,62.74h1.56v1a2.62,2.62,0,0,1-1.31.35,2.25,2.25,0,1,1-.35-4.48,2,2,0,0,1,.35,0,2.53,2.53,0,0,1,1.72.66l1.33-1.43a4.65,4.65,0,0,0-3-1.1A4.13,4.13,0,1,0,30.21,66c.21,0,.43,0,.64,0a4.66,4.66,0,0,0,3.28-1.32V61.19H30.59Z"/><path class="cls-1" d="M38.06,57.76l-3.39,8H37l.59-1.48h3.19l.46,1.48h2.24l-3.28-8Zm.21,4.82.83-1.92.83,1.92Z"/><polygon class="cls-1" points="52.24 60.71 49.87 57.87 47.63 57.87 47.63 65.75 50 65.75 50 61.19 52.14 63.62 54.55 61.22 54.55 65.75 56.94 65.75 56.94 57.87 54.77 57.87 52.24 60.71"/><polygon class="cls-1" points="67.47 57.87 64.47 57.87 62.86 59.86 61.4 57.87 58.33 57.87 61.35 61.63 57.99 65.75 61.11 65.75 62.96 63.48 64.79 65.75 67.88 65.75 64.59 61.58 67.47 57.87"/><path class="cls-1" d="M73.29,3.51s-5.54-3.76-7.4,1.75a8.1,8.1,0,0,0,1.39,5.05S83.8,26.16,79,43.26C79,43.26,93.38,23,73.29,3.51Z"/><path class="cls-1" d="M76.63,27.21s-4-8.45-8.2-12.47c0,0-5.73-3.55-9.89,1.22,0,0-3,3.94-.95,7.74,0,.05,0,.09.07.13,2.23,3.85,9.19,10,12.94,20.28,0,0,1.58,5.36,7-1.86C77.62,42.25,81.84,37.76,76.63,27.21Z"/><path class="cls-1" d="M16.71,10.31a8,8,0,0,0,1.4-5.05c-1.86-5.51-7.4-1.75-7.4-1.75C-9.38,23,5,43.26,5,43.26.2,26.16,16.71,10.31,16.71,10.31Z"/><path class="cls-1" d="M26.41,23.7c2.08-3.8-.95-7.74-.95-7.74-4.16-4.77-9.89-1.22-9.89-1.22-4.16,4-8.2,12.47-8.2,12.47-5.21,10.55-1,15-1,15,5.44,7.22,7,1.86,7,1.86,3.75-10.26,10.71-16.43,12.94-20.28C26.36,23.79,26.39,23.75,26.41,23.7Z"/></svg>