<svg id="Layer_1" data-name="Layer 1" xmlns="http://www.w3.org/2000/svg" viewBox="0 0 227 45"><defs><style>.cls-1{fill:#fd6250;}.cls-2{isolation:isolate;}.cls-3{fill:#fff;}</style></defs><title>Boton-Rappi-227x45</title><path id="Rectangle_55" data-name="Rectangle 55" class="cls-1" d="M22.5,0h182A22.5,22.5,0,0,1,227,22.5h0A22.5,22.5,0,0,1,204.5,45H22.5A22.5,22.5,0,0,1,0,22.5H0A22.5,22.5,0,0,1,22.5,0Z"/><g id="PIDE_POR_RAPPI" data-name="PIDE POR RAPPI" class="cls-2"><g class="cls-2"><path class="cls-3" d="M25.87,17.29a4.6,4.6,0,0,1,1.71.29,3.2,3.2,0,0,1,1.14.78,2.88,2.88,0,0,1,.65,1.09,4.21,4.21,0,0,1,.2,1.27,4.16,4.16,0,0,1-.2,1.27,2.85,2.85,0,0,1-.65,1.1,3.08,3.08,0,0,1-1.14.78,4.6,4.6,0,0,1-1.71.29H23.39V28H21V17.29Zm-.65,5a4.93,4.93,0,0,0,.78-.06,1.91,1.91,0,0,0,.66-.23,1.36,1.36,0,0,0,.46-.49,2.09,2.09,0,0,0,0-1.65,1.36,1.36,0,0,0-.46-.49,1.91,1.91,0,0,0-.66-.23,4.93,4.93,0,0,0-.78-.06H23.39v3.21Z"/><path class="cls-3" d="M33.4,17.29V28H31V17.29Z"/><path class="cls-3" d="M40.08,17.29a5.47,5.47,0,0,1,1.93.33,4.2,4.2,0,0,1,1.55,1,4.71,4.71,0,0,1,1,1.65,6.83,6.83,0,0,1,.36,2.33,7.42,7.42,0,0,1-.3,2.16,4.9,4.9,0,0,1-.9,1.71,4.45,4.45,0,0,1-1.52,1.13,5.2,5.2,0,0,1-2.14.41H35.46V17.29ZM39.92,26a3.31,3.31,0,0,0,1-.16,2.23,2.23,0,0,0,.85-.55,2.81,2.81,0,0,0,.6-1,4.38,4.38,0,0,0,.23-1.5,5.93,5.93,0,0,0-.16-1.46,2.83,2.83,0,0,0-.52-1.12,2.21,2.21,0,0,0-.95-.71,3.68,3.68,0,0,0-1.46-.25H37.82V26Z"/><path class="cls-3" d="M54.59,17.29v2H48.94v2.3h5.19v1.82H48.94V26h5.77v2H46.58V17.29Z"/><path class="cls-3" d="M65.3,17.29a4.56,4.56,0,0,1,1.71.29,3.34,3.34,0,0,1,1.15.78,2.86,2.86,0,0,1,.64,1.09,3.92,3.92,0,0,1,.2,1.27A3.88,3.88,0,0,1,68.8,22a2.82,2.82,0,0,1-.64,1.1,3.2,3.2,0,0,1-1.15.78,4.56,4.56,0,0,1-1.71.29H62.82V28H60.47V17.29Zm-.65,5a4.93,4.93,0,0,0,.78-.06,1.91,1.91,0,0,0,.66-.23,1.28,1.28,0,0,0,.46-.49,2.09,2.09,0,0,0,0-1.65,1.28,1.28,0,0,0-.46-.49,1.91,1.91,0,0,0-.66-.23,4.93,4.93,0,0,0-.78-.06H62.82v3.21Z"/><path class="cls-3" d="M70.37,20.46a5.38,5.38,0,0,1,1-1.79,4.79,4.79,0,0,1,1.66-1.2,5.92,5.92,0,0,1,4.43,0,4.75,4.75,0,0,1,1.65,1.2,5.4,5.4,0,0,1,1,1.79,6.73,6.73,0,0,1,.36,2.23,6.43,6.43,0,0,1-.36,2.18,5.16,5.16,0,0,1-1,1.76,4.7,4.7,0,0,1-1.65,1.18,5.92,5.92,0,0,1-4.43,0,4.74,4.74,0,0,1-1.66-1.18,5.14,5.14,0,0,1-1-1.76A6.43,6.43,0,0,1,70,22.69,6.73,6.73,0,0,1,70.37,20.46ZM72.52,24a3.62,3.62,0,0,0,.5,1.15,2.63,2.63,0,0,0,.9.82,3.09,3.09,0,0,0,2.7,0,2.63,2.63,0,0,0,.9-.82A3.63,3.63,0,0,0,78,24a5.66,5.66,0,0,0,.15-1.31A6.1,6.1,0,0,0,78,21.33a3.61,3.61,0,0,0-.51-1.18,2.56,2.56,0,0,0-.9-.83,3.09,3.09,0,0,0-2.7,0,2.56,2.56,0,0,0-.9.83,3.59,3.59,0,0,0-.5,1.18,6.1,6.1,0,0,0-.16,1.36A5.66,5.66,0,0,0,72.52,24Z"/><path class="cls-3" d="M87.92,17.29a3.58,3.58,0,0,1,1.3.23,3.19,3.19,0,0,1,1,.64,2.88,2.88,0,0,1,.63.94,3.09,3.09,0,0,1,.21,1.15,3.25,3.25,0,0,1-.39,1.63,2.52,2.52,0,0,1-1.3,1.05v0a1.76,1.76,0,0,1,.72.37,2,2,0,0,1,.46.58,2.9,2.9,0,0,1,.27.75,7.32,7.32,0,0,1,.11.8c0,.17,0,.38,0,.61s0,.46,0,.7a6.38,6.38,0,0,0,.12.68,1.64,1.64,0,0,0,.25.55H89a4.12,4.12,0,0,1-.24-1.21c0-.47-.07-.92-.13-1.36a2.09,2.09,0,0,0-.51-1.22,1.77,1.77,0,0,0-1.28-.39H84.5V28H82.14V17.29Zm-.84,4.84a1.82,1.82,0,0,0,1.21-.35,1.51,1.51,0,0,0,.41-1.17,1.45,1.45,0,0,0-.41-1.14,1.82,1.82,0,0,0-1.21-.35H84.5v3Z"/><path class="cls-3" d="M102.92,17.29a3.58,3.58,0,0,1,1.3.23,3.19,3.19,0,0,1,1,.64,2.88,2.88,0,0,1,.63.94,3.09,3.09,0,0,1,.21,1.15,3.25,3.25,0,0,1-.39,1.63,2.52,2.52,0,0,1-1.3,1.05v0a1.76,1.76,0,0,1,.72.37,2,2,0,0,1,.46.58,2.9,2.9,0,0,1,.27.75,7.32,7.32,0,0,1,.11.8c0,.17,0,.38,0,.61s0,.46,0,.7a6.38,6.38,0,0,0,.12.68,1.64,1.64,0,0,0,.25.55H104a4.12,4.12,0,0,1-.24-1.21c0-.47-.07-.92-.13-1.36a2.09,2.09,0,0,0-.51-1.22,1.77,1.77,0,0,0-1.28-.39H99.5V28H97.14V17.29Zm-.84,4.84a1.82,1.82,0,0,0,1.21-.35,1.51,1.51,0,0,0,.41-1.17,1.45,1.45,0,0,0-.41-1.14,1.82,1.82,0,0,0-1.21-.35H99.5v3Z"/><path class="cls-3" d="M113.31,17.29l4,10.71h-2.45l-.81-2.38h-4L109.22,28h-2.37l4.05-10.71Zm.14,6.57-1.35-3.93h0l-1.4,3.93Z"/><path class="cls-3" d="M123.08,17.29a4.56,4.56,0,0,1,1.71.29,3.34,3.34,0,0,1,1.15.78,2.86,2.86,0,0,1,.64,1.09,3.92,3.92,0,0,1,.2,1.27,3.88,3.88,0,0,1-.2,1.27,2.82,2.82,0,0,1-.64,1.1,3.2,3.2,0,0,1-1.15.78,4.56,4.56,0,0,1-1.71.29H120.6V28h-2.35V17.29Zm-.65,5a4.93,4.93,0,0,0,.78-.06,1.91,1.91,0,0,0,.66-.23,1.28,1.28,0,0,0,.46-.49,2.09,2.09,0,0,0,0-1.65,1.28,1.28,0,0,0-.46-.49,1.91,1.91,0,0,0-.66-.23,4.93,4.93,0,0,0-.78-.06H120.6v3.21Z"/><path class="cls-3" d="M133.08,17.29a4.56,4.56,0,0,1,1.71.29,3.24,3.24,0,0,1,1.15.78,2.88,2.88,0,0,1,.65,1.09,4.21,4.21,0,0,1,.2,1.27,4.16,4.16,0,0,1-.2,1.27,2.85,2.85,0,0,1-.65,1.1,3.12,3.12,0,0,1-1.15.78,4.56,4.56,0,0,1-1.71.29h-2.47V28h-2.36V17.29Zm-.64,5a4.93,4.93,0,0,0,.78-.06,1.91,1.91,0,0,0,.66-.23,1.36,1.36,0,0,0,.46-.49,2.09,2.09,0,0,0,0-1.65,1.36,1.36,0,0,0-.46-.49,1.91,1.91,0,0,0-.66-.23,4.93,4.93,0,0,0-.78-.06h-1.83v3.21Z"/><path class="cls-3" d="M140.61,17.29V28h-2.35V17.29Z"/></g></g><path id="Path_421" data-name="Path 421" class="cls-3" d="M211.35,18.19c-3.14,2.74-5.92,2.92-9.26.46-1.53-1.13-2.91-2.48-4.45-3.6a17.29,17.29,0,0,0-3.81-2.27,7.55,7.55,0,0,0-6.89.69,44,44,0,0,0-4.14,3,.61.61,0,0,1-.88.07.23.23,0,0,1-.07-.07,44.15,44.15,0,0,0-4.15-3,7.53,7.53,0,0,0-6.88-.69A17.29,17.29,0,0,0,167,15.05c-1.54,1.12-2.92,2.47-4.45,3.6-3.34,2.46-6.12,2.28-9.26-.46l-.77-.68a17.19,17.19,0,0,0,2.95,7,14.84,14.84,0,0,0,7.5,5.66c7.3,2.47,16.52-1,19.34-7.46,2.82,6.49,12,9.93,19.33,7.46a14.79,14.79,0,0,0,7.5-5.66,17.07,17.07,0,0,0,3-7l-.77.68"/></svg>