<svg id="Layer_1" data-name="Layer 1" xmlns="http://www.w3.org/2000/svg" viewBox="0 0 30 34"><defs><style>.cls-1{fill:#707070;}</style></defs><title>IconoMenu-Platillos-30x34</title><path class="cls-1" d="M29.27,10.69a14.51,14.51,0,0,0-2.58-2.15,6.72,6.72,0,0,0,.1-1.1A6.24,6.24,0,0,0,20.8,1a5.86,5.86,0,0,0-5,2.84,4.42,4.42,0,0,0-5.5.8,4.83,4.83,0,0,0-.7,1A4.41,4.41,0,0,0,5.49,6.94a5.09,5.09,0,0,0-1.36,3.37,4.5,4.5,0,0,0-1.64,1.11A5.43,5.43,0,0,0,1.2,14.11c-.32,1.49.5,3.39,1.09,4.5A6.22,6.22,0,0,0,0,23.49a5.89,5.89,0,0,0,5.66,6.08,5.33,5.33,0,0,0,1.2-.15,15,15,0,0,0,2.08,2.82l.72.76L30,11.46ZM20.8,3.17a4.13,4.13,0,0,1,3.95,4.27v0A13.67,13.67,0,0,0,17.9,6.31a4.71,4.71,0,0,0-.51-1A3.92,3.92,0,0,1,20.8,3.17ZM3.18,14.59A3.3,3.3,0,0,1,3.93,13a2.48,2.48,0,0,1,1.44-.76l1-.17-.2-1.11a2.84,2.84,0,0,1,.71-2.44A2.5,2.5,0,0,1,9.8,7.91l1,.48.35-1.13a2.72,2.72,0,0,1,.61-1.08,2.5,2.5,0,0,1,3.67,0,2.43,2.43,0,0,1,.35.49,14.06,14.06,0,0,0-6.86,4,15.21,15.21,0,0,0-3,4.59,19.3,19.3,0,0,0-.64,2.14,5.49,5.49,0,0,0-1.21.22A6.24,6.24,0,0,1,3.18,14.59ZM5.66,27.4A3.78,3.78,0,0,1,2,23.49a3.86,3.86,0,0,1,2.9-3.84,16.55,16.55,0,0,0,1,7.73ZM22.29,16.57V11.86h-2v6.86l-1.83,1.94V16h-2v6.78l-1.83,1.94V20.21h-2v6.7l-2.82,3A14.25,14.25,0,0,1,7.86,16.07a13,13,0,0,1,2.51-3.82h0a11.86,11.86,0,0,1,16.71-.74Z"/></svg>