<svg id="Layer_1" data-name="Layer 1" xmlns="http://www.w3.org/2000/svg" viewBox="0 0 30 34"><defs><style>.cls-1{fill:#707070;}</style></defs><title>IconoMenu-Bebidas-30x34</title><path class="cls-1" d="M23.36,2.37a6.16,6.16,0,0,0-6.08,5.35h-2.8L12.14,0H.5V2.08H10.61l1.71,5.64H7.46l.39,1.34a47.73,47.73,0,0,1,2,13.57v2.52a1.9,1.9,0,0,0,1.89,1.9h3.24v4.87H9.13V34H22.81V31.92H17V27.05h3.24a1.9,1.9,0,0,0,1.89-1.9V22.63a48.53,48.53,0,0,1,.66-7.91l.57,0a6.19,6.19,0,0,0,0-12.38ZM10.21,9.8H13L14.82,16h-3.4A49.31,49.31,0,0,0,10.21,9.8Zm9.85,12.83V25H11.87V22.63c0-1.54-.09-3.07-.23-4.59H20.3C20.16,19.56,20.06,21.09,20.06,22.63ZM20.51,16H17L15.11,9.8h6.62A49.34,49.34,0,0,0,20.51,16Zm2.85-3.29-.18,0c.25-1.21.55-2.41.91-3.59l.39-1.34h-5.1a4.07,4.07,0,1,1,4,5Z"/></svg>