<svg id="Layer_1" data-name="Layer 1" xmlns="http://www.w3.org/2000/svg" viewBox="0 0 30 34"><defs><style>.cls-1{fill:#707070;}</style></defs><title>IconoMenu-Destilados-30x34 copy</title><path class="cls-1" d="M20.39,9.37a10.84,10.84,0,0,0,3.7-8.27V0H5V1.1a10.84,10.84,0,0,0,3.7,8.27H4L8.78,34H21.22L26,9.37Zm-8.32-.49L14.43,3.7,16.83,9a6.62,6.62,0,0,1-2.27.41A6.7,6.7,0,0,1,12.07,8.88Zm6.66-1L16.12,2.2h5.76A8.43,8.43,0,0,1,18.73,7.91ZM7.23,2.2h5.51L10.2,7.78A8.47,8.47,0,0,1,7.23,2.2ZM15,11.57h8.38l-1.13,5.84A20.8,20.8,0,0,1,13,16a14.86,14.86,0,0,0-5.76-1.09l-.65-3.34ZM19.45,31.8h-8.9L7.7,17.13a12.5,12.5,0,0,1,4.45.88,21.92,21.92,0,0,0,8.66,1.66c.34,0,.67,0,1,0Z"/></svg>