<svg id="Layer_1" data-name="Layer 1" xmlns="http://www.w3.org/2000/svg" viewBox="0 0 30 30"><defs><style>.cls-1{fill:#707070;}</style></defs><title>IconoDeportes-Otros-30x30</title><path class="cls-1" d="M29.94,13.67l-1.2.11h0l1.2-.11A15,15,0,0,0,17.75.26l-.22,1.18L17.75.26A15,15,0,0,0,3.53,5.33a14.9,14.9,0,0,0-3.51,9,14.23,14.23,0,0,0,.06,2.26h0a15,15,0,0,0,11.26,13A15.2,15.2,0,0,0,21,28.77a15.57,15.57,0,0,0,2.79-1.6A15,15,0,0,0,30,15.69,15.31,15.31,0,0,0,29.94,13.67Zm-2.65-1.38a10,10,0,0,0-1.23-.11,14.89,14.89,0,0,0-6.43,1.12,22,22,0,0,0-2.8-3,14.88,14.88,0,0,0,2-6.74c0-.19,0-.38,0-.57A12.6,12.6,0,0,1,27.29,12.29ZM15.58,2.41l.82.07c0,.33,0,.65,0,1A12.58,12.58,0,0,1,14.92,8.8,21.88,21.88,0,0,0,7,5.31,12.54,12.54,0,0,1,15.58,2.41Zm-13.17,12A12.49,12.49,0,0,1,5,7.39,19.43,19.43,0,0,1,13.6,10.8,12.51,12.51,0,0,1,3.22,15.46l-.81-.06C2.4,15.07,2.4,14.74,2.41,14.42Zm-1.14,2Zm1.46,1.39.38,0a14.89,14.89,0,0,0,6.71-1.23,14.79,14.79,0,0,0,5.65-4.33,19.08,19.08,0,0,1,2,2.12,15,15,0,0,0-7.08,12c0,.08,0,.16,0,.25A12.65,12.65,0,0,1,2.73,17.83Zm11.69,9.76a12.88,12.88,0,0,1-1.64-.2q0-.42,0-.81a12.62,12.62,0,0,1,6.08-10.2,19.39,19.39,0,0,1,3,9.2A12.47,12.47,0,0,1,14.42,27.59Zm9.63-3.82a21.66,21.66,0,0,0-3-8.44A12.82,12.82,0,0,1,26,14.57a13,13,0,0,1,1.65.2c0,.27,0,.55,0,.81A12.57,12.57,0,0,1,24.05,23.77Z"/></svg>