<svg id="Layer_1" data-name="Layer 1" xmlns="http://www.w3.org/2000/svg" viewBox="0 0 30 30"><defs><style>.cls-1{fill:#707070;}</style></defs><title>IconoDeportes-Box-30x30</title><path class="cls-1" d="M20.87,0H11.29A5.61,5.61,0,0,0,5.65,5.57v4.56A5.21,5.21,0,0,0,3.5,14.34v2.33a6.38,6.38,0,0,0,5.36,6.26V28.3A1.71,1.71,0,0,0,10.58,30H21.31A1.71,1.71,0,0,0,23,28.3V22.56a5.58,5.58,0,0,0,3.47-5.14V5.57A5.61,5.61,0,0,0,20.87,0ZM11.29,27.6V23l9.31,0V27.6ZM24.07,17.42a3.19,3.19,0,0,1-3.21,3.17l-10.93,0a4,4,0,0,1-4-4V14.34A2.85,2.85,0,0,1,8.8,11.5h1a2,2,0,0,1,.43.05,1.73,1.73,0,0,1,1.28.92,1.93,1.93,0,0,1-.14,1.75,2.55,2.55,0,0,0,.14,2.65A2.73,2.73,0,0,0,13.82,18H17.5a1.19,1.19,0,0,0,1.21-1.19,1.21,1.21,0,0,0-1.21-1.21H13.71a.16.16,0,0,1-.15-.08.17.17,0,0,1,0-.17,4.25,4.25,0,0,0,.2-3.9,4.17,4.17,0,0,0-3-2.25,4.14,4.14,0,0,0-.93-.1h-1a5.81,5.81,0,0,0-.72.05V5.57A3.19,3.19,0,0,1,11.29,2.4h9.58a3.18,3.18,0,0,1,3.2,3.17Z"/><path class="cls-1" d="M19.1,24.82H18a.9.9,0,1,0,0,1.8h1.1a.9.9,0,1,0,0-1.8Z"/></svg>