<svg id="Layer_1" data-name="Layer 1" xmlns="http://www.w3.org/2000/svg" viewBox="0 0 53 42"><defs><style>.cls-1{fill:#fff;}</style></defs><title>Logo-Header-53x42</title><g id="Group_37" data-name="Group 37"><path id="Path_8" data-name="Path 8" class="cls-1" d="M20.37,15A19.56,19.56,0,0,1,26.85,4.25a19.54,19.54,0,0,1,6,10.69,32.47,32.47,0,0,1,3.17-1.16,22.84,22.84,0,0,0-8.14-13l-1-.81-1,.77a22.89,22.89,0,0,0-8.63,12.89A28.85,28.85,0,0,1,20.37,15Z"/><path id="Path_9" data-name="Path 9" class="cls-1" d="M52.51,18.08,52.3,17l-1.06-.24A26.66,26.66,0,0,0,26.85,23.5l-.36.35-.35-.36A26.64,26.64,0,0,0,2,16l-1.07.2L.68,17.2A26.09,26.09,0,0,0,7.47,41.38l2.4-2.31A22.8,22.8,0,0,1,3.72,19a23.28,23.28,0,0,1,20,6.77c.19.19.36.38.54.57A20.5,20.5,0,0,1,27,30.08l.1.17.05.09h0c.2.33.39.67.56,1,.35.69.67,1.4,1,2.11a2.58,2.58,0,0,1-.22,2.29,2.52,2.52,0,0,1-2.21,1.19h0A2.55,2.55,0,0,1,24,33.38c.27-.62.57-1.22.89-1.82l-2.64-2.13c-.05.09-.1.18-.16.27a26.23,26.23,0,0,0-1.17,2.38,5.87,5.87,0,0,0,5.32,8.17h0a5.87,5.87,0,0,0,5.6-8,26.3,26.3,0,0,0-3.19-5.84l.55-.54a23.29,23.29,0,0,1,20.24-6.1,22.84,22.84,0,0,1-6.84,19.84L44.9,42A26.11,26.11,0,0,0,52.51,18.08Z"/></g></svg>