<svg id="Layer_1" data-name="Layer 1" xmlns="http://www.w3.org/2000/svg" viewBox="0 0 30 30"><defs><style>.cls-1{fill:#707070;}</style></defs><title>IconoDeportes-NFL-30x30</title><path class="cls-1" d="M30,4a4,4,0,0,0-4-4H19.66V1.2h0V0h-.41A19.33,19.33,0,0,0,.05,18l1.19.08h0L.05,18c0,.51,0,.94,0,1.34V26a4,4,0,0,0,4,4h6.77c.41,0,.81,0,1.21,0A19.31,19.31,0,0,0,30,10.67v-.29h0ZM27.61,4v3.5L22.55,2.4H26A1.59,1.59,0,0,1,27.61,4ZM2.39,26V20.92L9,27.6H4A1.59,1.59,0,0,1,2.39,26Zm10,1.51-9.86-9.9A16.93,16.93,0,0,1,19.17,2.4l8.44,8.47A16.93,16.93,0,0,1,12.34,27.52Z"/><path class="cls-1" d="M18.73,12.83l1-1a.91.91,0,0,0,0-1.28l-.43-.42a.89.89,0,0,0-1.26,0l-1,1-.95-1a.9.9,0,0,0-1.27,1.27l.95,1-3.29,3.31-.94-1a.9.9,0,0,0-1.27,0,.91.91,0,0,0,0,1.28l1,.95L9.67,18.53a.91.91,0,0,0,0,1.28l.42.42a.9.9,0,0,0,1.27,0l1.55-1.56L14,19.82a.9.9,0,0,0,1.27,0,.91.91,0,0,0,0-1.28L14.17,17.4l3.29-3.3,1.14,1.14A.9.9,0,0,0,19.87,14Z"/></svg>