<svg id="Layer_1" data-name="Layer 1" xmlns="http://www.w3.org/2000/svg" viewBox="0 0 30 30"><defs><style>.cls-1{fill:#707070;}</style></defs><title>IconoDeportes-Futbol-30x30</title><path class="cls-1" d="M19.09,19.08l1.35-4.17a2,2,0,0,0-.72-2.23l-3.55-2.57a2,2,0,0,0-2.34,0l-3.54,2.57a2,2,0,0,0-.73,2.23l1.35,4.17a2,2,0,0,0,1.9,1.38h4.38A2,2,0,0,0,19.09,19.08Zm-6-1-1.18-3.61L15,12.22l3.07,2.23-1.18,3.61Z"/><path class="cls-1" d="M30,14.45l-1.2,0h0l1.2,0A15,15,0,0,0,3.7,5.14,14.83,14.83,0,0,0,.06,13.72C0,14.19,0,14.6,0,15a15,15,0,0,0,2.22,7.86,15.2,15.2,0,0,0,7.09,6A15,15,0,0,0,15,30a14.82,14.82,0,0,0,6.08-1.29A15,15,0,0,0,30,15C30,14.82,30,14.63,30,14.45ZM25.53,10.9l.59-1.81a12.42,12.42,0,0,1,1.15,3.08ZM16.41,2.49l-1.35,1-1.38-1c.44,0,.88-.07,1.32-.07A11.12,11.12,0,0,1,16.41,2.49Zm-12,5.76.81,2.5L2.62,12.7A12.26,12.26,0,0,1,4.37,8.25Zm1,14.85H8L8.93,26A12.75,12.75,0,0,1,5.36,23.1Zm6.46,4.09-1.62-5.1A2,2,0,0,0,8.3,20.7H3.77a12.37,12.37,0,0,1-1.34-4.85l4.43-3.36a2,2,0,0,0,.69-2.2L6.17,6A12.6,12.6,0,0,1,10.6,3.2l3.28,2.38A2,2,0,0,0,15.06,6a2,2,0,0,0,1.17-.38l3.24-2.36A12.44,12.44,0,0,1,24.4,6.62l-1.24,3.82A2,2,0,0,0,23.27,12a2.07,2.07,0,0,0,.61.71l3.71,2.69a12.58,12.58,0,0,1-1.25,5.12H22a2,2,0,0,0-1.89,1.38l-1.53,4.71h0l-.18.56A12.72,12.72,0,0,1,11.82,27.19Zm9.46-1.28,1-3h2.57A12.7,12.7,0,0,1,21.28,25.91Z"/></svg>