<svg id="Layer_1" data-name="Layer 1" xmlns="http://www.w3.org/2000/svg" viewBox="0 0 84 66"><defs><style>.cls-1{fill:#fff;}</style></defs><title>Icono-Liga-CopaMx</title><path class="cls-1" d="M64.28,14.65c.48-1.69,1.13-7.48-13.16-6.53,1.87.09,10.78,1.09,11.6,4.66.35,1.18-.43,1.92-.22,3.26.26,1.05,1.31,1.31,1.13,2s-3.25,4-4.73,6.7C57.68,27.62,53.77,35.56,52.77,37s-4.38,8.05-8.48,12.86A27.64,27.64,0,0,0,45,40.45a59.08,59.08,0,0,0,2.07-7.35s2.17-6.31,1.69-8.74a18.59,18.59,0,0,1,.15-3.95,3.68,3.68,0,0,0,.94-1.4l-.82.63c.07-.34.14-.67.22-1,2.38-2.18,1.74-2.07,2.08-3.4a9,9,0,0,1-1.7,2.08c.18-.54.38-1.08.6-1.6a5.52,5.52,0,0,0,1.59-4.08,10.65,10.65,0,0,1-1.29,2.14c0-.36,0-.72,0-1.1.2-.29.42-.57.61-.87.61-1.78-.79-2.18-.73-1.67a1.87,1.87,0,0,1-.05.3A5.94,5.94,0,0,0,48.91,7c-.09.5.3.81.56,1.64a13.12,13.12,0,0,1,.35,3.07,24.45,24.45,0,0,1-4.25,4.6c-1.47,1.27-5.32,3.59-9.51,7.72-4.2-4.13-8-6.45-9.51-7.72-2.13-1.84-4.74-4.6-4.89-6.1a8.34,8.34,0,0,1,.27-1.57c.65-1.44.95-1.78.47-2.22s-2.52,0-4.73,1S9.63,11,9.2,13.92A5.31,5.31,0,0,1,7,17.79a1.76,1.76,0,0,0,.43,2.83c1.65,1.22,3.69,3.3,5.74,8.09,1.47,4.09,4,7.44,5.34,9.7a93.73,93.73,0,0,0,9.13,10.85l.16.61c0-.17,0-.35-.07-.52a19.85,19.85,0,0,0,1.68,1.53c.21.29.52.11.15-.17l-1.92-2.13a33.86,33.86,0,0,1,0-8.13c2,6,4.42,12.49,6.42,14.06,0,0,2.47,2.66,5-.74a65.41,65.41,0,0,0,5.57-12.18,38.26,38.26,0,0,1-.32,8.28c-.61.71-1.23,1.38-1.85,2-1.57,1.74-3.61,4-1.44,4,2,.08,3.27-1.14,4-.09.78.83,3.47,3.74,2.87,5.57-.39,1.52-3.26,1.91-4.39,2.13S32,65.86,25.8,62.82c-.44-.34-.7-.74-.87-.39,0,0,.61,3.4,13.55,3.57,7.47-.17,9.73-2.09,10.6-3,.78-.69.87-1.82.44-3.22s-1.39-5-3.39-5.3a14.5,14.5,0,0,0-4.52.82c-.74.26-2,.18.48-2,3.56-3.13,9.73-11.58,12.33-16.1a106.44,106.44,0,0,0,5.09-9.62,9.7,9.7,0,0,1,1.91-3.87c1.78-2.65,5.34-4.44,2.73-6.88C64.15,16.78,63.68,16.74,64.28,14.65ZM45,36.45l-.37,1.44a20.71,20.71,0,0,0-2.79-7c-.36-.52-.73-1-1.09-1.51a24.77,24.77,0,0,1,4.65-3.67,2.4,2.4,0,0,0,1-1.16,34.41,34.41,0,0,0-5.83,4.65l-.39-.49a38.43,38.43,0,0,1,6.69-5.06c0,.26,0,.52,0,.78A59.84,59.84,0,0,1,45,36.45Zm-8.76-3.39c.19-.25.4-.5.6-.74l.44.66c-.21.28-.42.55-.61.84C36.54,33.57,36.4,33.32,36.24,33.06Zm-.79.76c-.2-.29-.41-.56-.61-.84.14-.22.28-.45.43-.66.21.24.41.49.61.74C35.72,33.32,35.58,33.57,35.45,33.82Zm-8.73-8.14a25.1,25.1,0,0,1,4.65,3.67c-.37.49-.73,1-1.09,1.51a20.24,20.24,0,0,0-2.35,5.24c-.53-1.7-1-3.26-1.27-4.39a77.7,77.7,0,0,1-1.74-8.26h0a38.07,38.07,0,0,1,7,5.24c-.13.16-.26.32-.38.49a34.41,34.41,0,0,0-5.83-4.65A2.35,2.35,0,0,0,26.72,25.68Zm11.18,1q-.4.34-.78.72c-.26-.29-.52-.58-.79-.86l.74-.71Zm.93,2.82q-.3-.41-.6-.78c.26-.27.53-.53.8-.78l.62.75Zm-6.36-.81.61-.75c.28.26.55.51.81.78-.2.25-.41.51-.6.78C33,29.22,32.75,29,32.47,28.69Zm3.59-.18c-.26-.29-.52-.57-.8-.85.26-.28.52-.56.8-.84.27.28.54.56.79.84C36.58,27.94,36.31,28.22,36.06,28.51Zm1-.56c.24.28.47.55.69.83-.26.28-.53.58-.79.88-.23-.3-.47-.59-.71-.88C36.56,28.5,36.84,28.22,37.11,28Zm-1.29.83c-.24.29-.48.58-.71.88-.27-.3-.53-.6-.8-.88.22-.28.45-.55.7-.83Zm-1.76-.28c-.26-.27-.52-.54-.78-.79.22-.25.44-.5.67-.74.26.23.53.47.78.72C34.5,28,34.28,28.23,34.06,28.5Zm.09.48c.28.29.54.59.8.89q-.3.39-.57.78c-.27-.29-.54-.59-.83-.89Q33.84,29.37,34.15,29Zm1,1.11c.25.3.5.62.74.93l-.56.76-.78-.94Q34.84,30.47,35.15,30.09Zm.16-.2c.24-.29.49-.58.75-.85.25.27.5.56.75.85-.26.3-.51.6-.75.92C35.81,30.49,35.56,30.19,35.31,29.89Zm1.66.2.6.75c-.28.32-.53.63-.78.94-.18-.25-.37-.51-.57-.76C36.47,30.71,36.71,30.39,37,30.09Zm.2-.22c.26-.3.52-.6.79-.89q.32.39.6.78l-.82.89Zm.89-1.37c-.22-.27-.45-.55-.68-.81.26-.25.52-.49.79-.72l.67.74C38.58,28,38.32,28.23,38.06,28.5Zm-2-2.24-.72-.72.72-.69.72.69C36.53,25.77,36.3,26,36.06,26.26Zm-.28.28L35,27.4c-.25-.25-.5-.49-.77-.72.27-.29.55-.57.83-.85C35.3,26.06,35.55,26.3,35.78,26.54Zm-1.94-.21L33,25.62c-4.56-3.64-7.53-5.77-9.47-7.41L23,16.86a62.67,62.67,0,0,0,5.2,4,36.77,36.77,0,0,1,6.41,4.59Zm-9.92-6.74c2.59,2,6.3,4.13,9.65,7l-.63.75a28.25,28.25,0,0,0-2.63-2.28C28.7,24,26,21.91,24.19,20.5c-.08-.3-.18-.6-.28-.91Zm5.64,5.57a25.35,25.35,0,0,1,3.18,2.45l-.61.76a72.45,72.45,0,0,0-7.39-5.9l-.24-.92C25.64,22.45,27.27,23.59,29.56,25.16ZM32.22,29c.28.27.57.54.84.82-.13.19-.26.37-.38.56l-.84-.87Zm1.09,1.09c.29.29.56.6.84.9l-.4.62c-.27-.32-.55-.64-.83-.95Zm1,1.08c.27.3.53.62.79.94-.15.21-.29.43-.43.64-.26-.33-.52-.66-.79-1Zm1.18.82c.18-.26.38-.51.57-.76.19.25.39.5.57.76-.21.27-.39.54-.57.8C35.88,32.53,35.69,32.26,35.49,32Zm1.53.12c.26-.32.52-.64.79-.94l.43.6c-.27.32-.53.65-.79,1ZM38,31c.27-.3.55-.61.83-.9l.4.57c-.29.31-.56.63-.84.95C38.24,31.41,38.11,31.2,38,31Zm1.08-1.17L39.9,29l.38.51c-.29.28-.57.58-.84.87ZM47,22.75a70.47,70.47,0,0,0-7,5.62l-.62-.76a26.21,26.21,0,0,1,3.19-2.45C44.5,23.83,46,22.81,47.07,22,47,22.23,47,22.49,47,22.75ZM41.81,25.1a28.25,28.25,0,0,0-2.63,2.28l-.64-.75c3-2.62,6.34-4.63,8.86-6.45-.06.29-.13.57-.18.86C45.46,22.39,43.22,24.09,41.81,25.1Zm-2.65.52c-.3.23-.59.47-.88.71l-.81-.88a36.5,36.5,0,0,1,6.42-4.59c1.8-1.27,3.18-2.31,4.24-3.18-.16.42-.29.85-.42,1.29C45.78,20.51,43.05,22.51,39.16,25.62Zm6.7-8.18a20.58,20.58,0,0,0,3.76-3.52,5.24,5.24,0,0,1-.58,1.6.54.54,0,0,0,0,.11,32.44,32.44,0,0,1-5.41,4.54,58.22,58.22,0,0,0-6.38,5l-.7-.7A65.42,65.42,0,0,1,45.86,17.44Zm-19.6,0a65,65,0,0,1,9.35,7l-.69.7a58.22,58.22,0,0,0-6.38-5,30.16,30.16,0,0,1-6.21-5.44q-.24-.77-.42-1.53A20.34,20.34,0,0,0,26.26,17.44Zm1.23,30.93a50.16,50.16,0,0,1-7.65-11C16.76,32.1,15.28,30,15,29.1c-.44-1.17-2.74-6.48-6.3-9.18-.48-.57-1.13-.74,0-1.7a3.41,3.41,0,0,0,1.39-3.52c-.18-1.26-.35-2.53,2.65-4,2.82-1.22,5.65-2.61,6.73-3s2.83-1,2.83-.44S21.19,8.76,21.19,10c-.31.22-.61.78-.26,1.78a6.91,6.91,0,0,0,.44.62c.06.47.14.93.24,1.4a11,11,0,0,1-1.32-2.19,5.66,5.66,0,0,0,2,4.51s0,.08,0,.11c.14.42.26.84.37,1.26a9.3,9.3,0,0,1-1.92-2.28c.35,1.36-.31,1.21,2.22,3.52.07.32.13.64.19,1L22.26,19a3.78,3.78,0,0,0,1,1.49c.1.72.17,1.44.2,2.16a26.26,26.26,0,0,0,.91,6.83c.38,1.39,1.46,5.36,2.85,9.76A28.31,28.31,0,0,0,27.49,48.37Zm3.08-16.89a16,16,0,0,1,1.15-1.8q.44.43.84.87A24,24,0,0,0,29,39.43l-.71-2.23A24.37,24.37,0,0,1,30.57,31.48Zm5.35,22.34c-2.53-2.09-3.7-5.35-4.78-7.75-.48-1.47-1.27-3.86-2.08-6.37a26.12,26.12,0,0,1,3.76-8.89c.3.32.58.63.85.94a22,22,0,0,0-2.52,5.94,19.49,19.49,0,0,1,2.65-5.8l.82.94A14.17,14.17,0,0,0,32.71,37a26.34,26.34,0,0,1,2.09-4l.65.78a6.08,6.08,0,0,0-.36.79c.31-.44.64-.88,1-1.31.33.43.66.87,1,1.31a7.79,7.79,0,0,0-.36-.79l.65-.78a25.41,25.41,0,0,1,2.08,4,14.14,14.14,0,0,0-1.9-4.18c.25-.3.52-.61.82-.94A19.34,19.34,0,0,1,41,37.69a22.25,22.25,0,0,0-2.51-5.94c.27-.31.55-.62.85-.94A28.26,28.26,0,0,1,43.51,42a24.43,24.43,0,0,0-4-11.4l.85-.87a17.57,17.57,0,0,1,1.15,1.8,24.52,24.52,0,0,1,2.74,7.69C42.71,45,39.28,56.32,35.92,53.82Z"/><path class="cls-1" d="M41,37.69A19.28,19.28,0,0,1,41.43,40,18.09,18.09,0,0,0,41,37.69Z"/><path class="cls-1" d="M31.15,37.69A21.46,21.46,0,0,0,30.68,40C30.8,39.18,31,38.43,31.15,37.69Z"/><path class="cls-1" d="M42.74,3.86C31.88,6,23.45,4,22.26,3,18.9.21,32.71.21,32.71.21,27.9-.4,17.36.38,19.36,2.5,24.14,7.24,39.78,4.82,42.74,3.86Z"/><path class="cls-1" d="M50.58,2.21c.15,1.57-9.06,4.72-21.57,4C30.14,6.74,42,8.74,52.81,2,54.2.91,47.72.15,37,2.21,37,2.21,50.43.56,50.58,2.21Z"/><path class="cls-1" d="M68.63,9.47,69.81,8.3a4.06,4.06,0,0,1-1.34-3v-.1a3.51,3.51,0,0,1,3.68-3.32h.15a3.48,3.48,0,0,1,3.53,3.43,4.15,4.15,0,0,1-1.29,2.9L75.89,9.4A5.46,5.46,0,0,0,77.5,5.34V5.12A5.24,5.24,0,0,0,72.15,0h-.21A5.21,5.21,0,0,0,66.8,5.27,5.35,5.35,0,0,0,68.63,9.47Z"/><path class="cls-1" d="M72.15,9.14h0a5.42,5.42,0,0,0,0,10.83h0a5.42,5.42,0,0,0,0-10.83Zm3.67,5.51a3.55,3.55,0,0,1-3.67,3.42H72a3.5,3.5,0,0,1-3.5-3.5v-.11a3.55,3.55,0,0,1,3.68-3.41h.18a3.5,3.5,0,0,1,3.5,3.49A.37.37,0,0,1,75.82,14.65Z"/><path class="cls-1" d="M73.83,28.72h0c2.08,0,3.46-1.53,3.46-3.94V20.7H67v1.82H70.3v2.05C70.3,26.85,71.51,28.72,73.83,28.72Zm-1.89-6.2h3.72v2.11c0,1.37-.63,2.24-1.85,2.24h0c-1.08,0-1.85-.86-1.85-2.24Z"/><path class="cls-1" d="M67,29l2.5,1.07V35L67,36.06V38L77.4,33.42V31.74L67,27.18Zm4.11,1.73,4.14,1.78-4.14,1.79Z"/><path class="cls-1" d="M77,53.22h0V49.93a1.42,1.42,0,0,0-.61-1c-1.08-.86-5.17-3.28-5.17-3.28v-.24L76,42.76a2.14,2.14,0,0,0,.81-.65A2.17,2.17,0,0,0,77,41.2V38.35H67v2.87H73.2L67.06,45v1.28L73.4,50,67,50.16v3.05l-.06,0a.09.09,0,0,0,0,.06v3L70.2,59l-3.31,2.8v3s0,0,0,0a.09.09,0,0,0,.13,0l.1-.1c-.06.07-.12.12-.16.16,0,.93.67.93.67.93H76c1,0,.95-1.09.95-1.09l-.06,0a.09.09,0,0,0,.12,0,.11.11,0,0,0,0-.06V61.92l-3.28-2.84L77,56.44v-3.1h0A.09.09,0,0,0,77,53.22ZM68.68,63.4l.68-.58,1.38-1.15.45-.37.16-.13h0l.06-.05a.84.84,0,0,1,.21-.11,1,1,0,0,0-.26.16S69.92,62.36,68.68,63.4Zm3-2.42a1,1,0,0,1,.35-.07,1.55,1.55,0,0,1,.21,0A1,1,0,0,0,71.69,61Zm5.18-4.63-3.38,2.73L76.87,62v2.4c-.67-.55-3.42-2.85-4.05-3.36a1.25,1.25,0,0,0-.78-.31h0a1.12,1.12,0,0,0-.56.15,1,1,0,0,0-.17.1l0,0h0s-1,.79-2,1.65l-2.19,1.87V61.85L70.48,59l-3.41-2.73V53.48C67.66,54,70,55.86,71.44,57h0a1.86,1.86,0,0,0,.52.07,1.88,1.88,0,0,0,.53-.07h0c.63-.47,1.74-1.38,2.68-2.16.48-.39.91-.75,1.22-1l.38-.31Z"/></svg>