<svg id="Layer_1" data-name="Layer 1" xmlns="http://www.w3.org/2000/svg" viewBox="0 0 84 66"><defs><style>.cls-1{fill:#fff;fill-rule:evenodd;}</style></defs><title>Icono-Liga-Champions</title><g id="Group_69" data-name="Group 69"><path id="Path_64" data-name="Path 64" class="cls-1" d="M42,17.43c3.41.93,5.95,1.37,5.95,1.37A53.69,53.69,0,0,1,44,14.44c2-2.78,3.53-4.71,3.53-4.71-2.09.46-4.07,1-5.85,1.61q-1.41-2-2.61-4.11a24.63,24.63,0,0,0-.81,5.32c-2.82,1.09-4.58,2-4.58,2,1.52.68,3.1,1.28,4.64,1.79a29.89,29.89,0,0,0,.91,5.55c.85-1.52,1.79-3,2.72-4.44Z"/><path id="Path_65" data-name="Path 65" class="cls-1" d="M57.54,16.57a4.43,4.43,0,0,1-2,1.6,39.79,39.79,0,0,0-.47-4.36,53.56,53.56,0,0,1-2.18,5,20.49,20.49,0,0,1-5,0A20.3,20.3,0,0,0,51.17,22,29.38,29.38,0,0,1,49,25.26a12,12,0,0,0,4.29-1.86,4.11,4.11,0,0,1,1.24,1.25,7.59,7.59,0,0,0,1-3.38,10.35,10.35,0,0,0,2-4.7Z"/><path id="Path_66" data-name="Path 66" class="cls-1" d="M56.72,10.15A11.15,11.15,0,0,0,53.53,6a10.15,10.15,0,0,0-2.29-3.25,3.47,3.47,0,0,1-.17,1.69A15.26,15.26,0,0,0,46,3,21.24,21.24,0,0,1,50.08,6.5a21.68,21.68,0,0,1-2.51,3.23A24.1,24.1,0,0,1,52.2,9.1a31.75,31.75,0,0,1,2.87,4.7,18.75,18.75,0,0,0-.43-4.54,3.79,3.79,0,0,1,2.08.89Z"/><path id="Path_67" data-name="Path 67" class="cls-1" d="M46,3a20.05,20.05,0,0,0-3.66-1.41A7.51,7.51,0,0,1,45.14,0a15.19,15.19,0,0,0-6,1A13.25,13.25,0,0,0,35,1.22a4.43,4.43,0,0,1,1,1.4,13.51,13.51,0,0,0-3.21,3,21.9,21.9,0,0,1,4-1.48c.15.27.3.53.47.79a15.12,15.12,0,0,0,1.87,2.34A10.69,10.69,0,0,1,40.74,3.3,34.21,34.21,0,0,1,46,3Z"/><path id="Path_68" data-name="Path 68" class="cls-1" d="M29.82,8a26.92,26.92,0,0,1,3-2.46,10.05,10.05,0,0,0-2.25.29A12.58,12.58,0,0,1,32.15,3a15.55,15.55,0,0,0-5.78,9.62,11.12,11.12,0,0,1,1.79-2.8,9.87,9.87,0,0,0,1.19,2A15.15,15.15,0,0,1,29.83,8Z"/><path id="Path_69" data-name="Path 69" class="cls-1" d="M33.72,14.53a27.23,27.23,0,0,0-4,.39,29.48,29.48,0,0,1-.34-3.09,13.33,13.33,0,0,0-1.7,3.62,3.21,3.21,0,0,0-1.47.85,5.25,5.25,0,0,0,1,1.8,9.76,9.76,0,0,0,.73,4.47A9.43,9.43,0,0,1,29,19.85a21.29,21.29,0,0,0,2.87,1.9,17.39,17.39,0,0,1-1.53-3.84,21.67,21.67,0,0,1,3.39-3.38Z"/><path id="Path_70" data-name="Path 70" class="cls-1" d="M42.07,28.28a33.45,33.45,0,0,1-3.45-1.7,35.34,35.34,0,0,1,.65-4.71,22,22,0,0,1-3.7,2.81,33.71,33.71,0,0,1-3.71-2.94,22.3,22.3,0,0,0,1.76,3.89,5.65,5.65,0,0,1-3.27.35s1.22,1.52,5,2.16a7.42,7.42,0,0,0,3.81,2.62,4.09,4.09,0,0,1-.55-2.33,33.25,33.25,0,0,0,3.46-.15Z"/><path id="Path_71" data-name="Path 71" class="cls-1" d="M48.91,28.12A8.39,8.39,0,0,0,49,25.25a19.17,19.17,0,0,1-2.77,3.2,21.44,21.44,0,0,1-4.16-.18,10.06,10.06,0,0,0,2.25,1.64A6.88,6.88,0,0,1,41.65,31,15.64,15.64,0,0,0,52.79,26.6a11.19,11.19,0,0,1-3.88,1.52Z"/><path id="Path_72" data-name="Path 72" class="cls-1" d="M34.38,46.53a9.63,9.63,0,0,1,13.54-.91A9.1,9.1,0,0,1,49,46.71l.46-.44A10.26,10.26,0,0,0,35,45a11.32,11.32,0,0,0-1.11,1.08l.44.43Z"/><path id="Path_73" data-name="Path 73" class="cls-1" d="M40.79,41.47,38,42.05l-.71-3.38L40,38.1l.13.62-1.82.37.14.71,1.74-.36.13.63-1.73.35.16.82,1.86-.38.13.62Z"/><path id="Path_74" data-name="Path 74" class="cls-1" d="M46.14,39.29l-1.67-.35-.16.75L46,40l-.13.62-1.67-.35-.3,1.39-1-.2.72-3.38,2.63.55-.14.62Z"/><path id="Path_75" data-name="Path 75" class="cls-1" d="M50.19,45.07l-.83-.78.13-.74-1.43-1-.63.4-.94-.53,3.37-2,.92.64-.59,4Zm-.28-3.7-1.28.81,1,.7.27-1.51Z"/><path id="Path_76" data-name="Path 76" class="cls-1" d="M34.76,43.69a1.7,1.7,0,0,1-2.45,0l-1.12-1.43.75-.58L33,43.07a1,1,0,0,0,1.39,0,1,1,0,0,0,.14-1.17l-1.1-1.4.75-.58,1.11,1.42c.67.91.26,1.73-.56,2.38Z"/><path id="Path_77" data-name="Path 77" class="cls-1" d="M53.61,41.7a16.49,16.49,0,0,0-23.23-.59c-.24.23-.47.46-.69.7l-.51-.51a17.35,17.35,0,0,1,24.45-.57c.17.16.33.32.49.49l-.51.48Z"/><path id="Path_78" data-name="Path 78" class="cls-1" d="M57,55.44a3.41,3.41,0,0,1-3.34-3.63,3.3,3.3,0,0,1,3.22-3.41H57a3.52,3.52,0,0,1-.05,7Zm-.12-6c-1.29,0-1.68,1.23-1.68,2.06,0,1.22.55,3,2,3,1.06,0,1.68-.94,1.68-2.07s-.47-3-2-3Z"/><path id="Path_79" data-name="Path 79" class="cls-1" d="M44.24,54.46c0,.37.08.5.68.62v.26c-.66,0-1.06-.06-1.45-.06s-.79,0-1.25.06v-.26c.4-.07.48-.25.48-.74V49.26c0-.29-.13-.43-.48-.44v-.29h3.09c1.93,0,2.63.92,2.63,2.12a2.09,2.09,0,0,1-2.1,2.09h-.23c-.51,0-1.26-.26-1.26-.48s.06-.09.15-.09.23,0,.37,0a1.34,1.34,0,0,0,1.52-1.14,1.22,1.22,0,0,0,0-.33c0-.94-.58-1.27-1.5-1.27l-.65.07v4.94Z"/><path id="Path_80" data-name="Path 80" class="cls-1" d="M50,49.2c0-.3-.13-.43-.48-.44v-.27c.46,0,.87.06,1.25.06s.8,0,1.26-.06v.27c-.36,0-.48.14-.48.44v5.44c0,.29.12.43.48.44v.26c-.47,0-.87-.06-1.26-.06s-.79,0-1.25.06v-.26c.36,0,.48-.15.48-.44Z"/><path id="Path_81" data-name="Path 81" class="cls-1" d="M62.53,49.19c0-.29-.13-.43-.48-.44v-.27c.46,0,.86.07,1.25.07a5.62,5.62,0,0,0,.92-.07l2.89,4.65h0V49.34c0-.54-.35-.59-.63-.59v-.27a8.7,8.7,0,0,0,1,.07c.34,0,.69,0,1-.07v.27c-.35,0-.48.15-.48.44v6.15H66.93L63.47,50h0v4.52c0,.54.34.59.63.59v.26a8.87,8.87,0,0,0-1-.07,8.59,8.59,0,0,0-1,.07v-.26c.36,0,.48-.15.48-.44V49.19Z"/><path id="Path_82" data-name="Path 82" class="cls-1" d="M70.66,53a2,2,0,0,0,2.14,1.71c.63,0,1.54-.19,1.54-1,0-.64-.66-.81-1.16-1l-.76-.23c-1.1-.32-2.19-.78-2.19-2,0-1.66,1.61-2.16,3.21-2.16a6.18,6.18,0,0,1,2,.34c0,.77,0,1.42.08,2h-.26a1.87,1.87,0,0,0-2-1.44c-.54,0-1.44.17-1.44.91,0,.58.51.76,1,.89l1.13.32c1.09.3,2.1.7,2.1,2.09s-1.43,2.16-3.18,2.16a6.88,6.88,0,0,1-2.34-.38c0-.84,0-1.58-.08-2.2Z"/><path id="Path_83" data-name="Path 83" class="cls-1" d="M16.36,49.2c0-.3-.12-.43-.48-.44v-.27c.46,0,.87.06,1.25.06s.8,0,1.26-.06v.27c-.36,0-.48.14-.48.44v2h2.52v-2c0-.3-.12-.43-.48-.44v-.27c.46,0,.87.06,1.26.06s.79,0,1.25-.06v.27c-.36,0-.48.14-.48.44v5.44c0,.29.13.43.48.44v.26c-.46,0-.87-.06-1.25-.06s-.8,0-1.26.06v-.26c.36,0,.49-.15.49-.44V52.25H17.91v2.4c0,.29.12.42.48.43v.27c-.46,0-.87-.07-1.26-.07s-.79,0-1.25.07v-.27c.36,0,.48-.14.48-.43V49.2Z"/><path id="Path_84" data-name="Path 84" class="cls-1" d="M26.33,52.37c.27-.74.6-1.56.84-2.39h0a20.43,20.43,0,0,0,.61,2.39Zm-2.53,3c.36,0,.72-.06,1.08-.06s.73,0,1.08.06v-.26c-.34,0-.49-.15-.49-.33a1.17,1.17,0,0,1,.08-.37L26,53.16h2l.33,1a1.51,1.51,0,0,1,.11.52c0,.24-.14.32-.52.39v.26c.45,0,.89-.06,1.34-.06s.89,0,1.33.06v-.26c-.31-.08-.47-.22-.63-.67l-1.92-5.92c-.32,0-.66.06-1,.06s-.65,0-1-.06v.27c.28,0,.4.17.4.27a1.53,1.53,0,0,1-.14.41L24.34,54.6a.63.63,0,0,1-.54.48v.26Z"/><path id="Path_85" data-name="Path 85" class="cls-1" d="M32.75,50.17c0-.29,0-.58,0-1s-.08-.36-.47-.42v-.27c.31,0,.69.06,1.06.06s.76,0,1.13-.06l1.83,4.82L38,48.49c.36,0,.72.06,1.08.06s.74,0,1.09-.06v.27c-.36,0-.42.15-.42.43s0,.76.08,1.11l.33,4.44c0,.27.32.31.53.34v.26c-.45,0-.91-.06-1.36-.06s-.9,0-1.33.06v-.26c.51-.06.65-.15.65-.63,0-.25,0-.72-.07-1.06l-.24-3.1h0L36.55,55.4h-.88l-2-5.17h0l-.09,3c0,.54,0,.82,0,1.1,0,.52.05.64.68.71v.26c-.42,0-.8-.06-1.2-.06s-.77,0-1.1.06v-.26c.41,0,.58-.12.6-.56l.23-4.34Z"/><path id="Path_86" data-name="Path 86" class="cls-1" d="M14.31,55a4.25,4.25,0,0,1-2.41.76A3.79,3.79,0,0,1,8,52v-.21a3.88,3.88,0,0,1,3.78-4h.33a5.43,5.43,0,0,1,1.88.28c0,.79,0,1.55.11,2.3h-.31A1.71,1.71,0,0,0,12,49c-1.32,0-2.33,1-2.33,2.77a2.8,2.8,0,0,0,2.6,2.79,3.84,3.84,0,0,0,2.2-.87L14.31,55Z"/><path id="Path_87" data-name="Path 87" class="cls-1" d="M25.62,59.09c0-.22-.1-.32-.37-.33v-.22c.35,0,.67.05,1,.05s.82,0,1.06-.05v.22c-.41,0-.47.21-.47.44v3.93H28.3c.53,0,.75-.24.89-.85h.26a9,9,0,0,0-.19,1.55h-4v-.22c.27,0,.37-.11.37-.33V59.09Z"/><path id="Path_88" data-name="Path 88" class="cls-1" d="M30.74,59.12c0-.22-.09-.33-.37-.33v-.23h4.08c0,.45,0,.8.06,1.24h-.22c-.08-.44-.19-.59-.63-.59H31.94v1.55H33c.36,0,.42-.13.47-.41h.22a6.19,6.19,0,0,0-.05.76,6.64,6.64,0,0,0,.05.77h-.22c0-.29-.11-.42-.47-.42H31.94v1.67h1.81c.44,0,.57-.14.71-.82h.27c-.06.51-.09,1-.1,1.53H30.38v-.22c.27,0,.37-.11.37-.34V59.13Z"/><path id="Path_89" data-name="Path 89" class="cls-1" d="M35.7,63.62a.5.5,0,0,0,.42-.37l1.58-4a1,1,0,0,0,.1-.31c0-.08-.09-.21-.31-.21v-.21c.26,0,.51,0,.76,0s.51,0,.76,0l1.48,4.56c.12.35.24.46.48.52v.22c-.33,0-.68-.05-1-.05s-.69,0-1,.05v-.22c.3-.06.41-.12.41-.31a1.44,1.44,0,0,0-.09-.4L39,62.14H37.4l-.35.94a1,1,0,0,0-.07.28c0,.15.12.24.38.26v.22a7.55,7.55,0,0,0-.83-.05,8.21,8.21,0,0,0-.84.05v-.22Zm3.08-2.09a14.56,14.56,0,0,1-.46-1.84h0c-.18.64-.44,1.27-.65,1.84Z"/><path id="Path_90" data-name="Path 90" class="cls-1" d="M45.29,62c0-.32-.14-.34-.5-.34v-.27c.32,0,.66,0,1,0s.72,0,1.08,0v.25c-.28,0-.43.08-.43.44v1.8H46l-.18-.54a2.2,2.2,0,0,1-1.59.64,2.53,2.53,0,0,1-2.49-2.57.49.49,0,0,1,0-.12,2.65,2.65,0,0,1,2.52-2.8,2.54,2.54,0,0,1,.39,0,3.16,3.16,0,0,1,1.59.37c0,.4,0,.85,0,1.4H46a1.36,1.36,0,0,0-1.46-1.06,1.66,1.66,0,0,0-1.68,1.66,1.55,1.55,0,0,0,0,.22c0,1,.57,2.12,1.5,2.12.57,0,.89-.26.89-.63V62Z"/><path id="Path_91" data-name="Path 91" class="cls-1" d="M48.48,59.09c0-.22-.09-.32-.37-.33v-.22c.26,0,.59.05.93.05s.75,0,1.08-.05v.22c-.35,0-.44.07-.44.39v3c0,.91.38,1.09,1,1.09s1-.2,1-1.09v-3c0-.31-.09-.37-.44-.39v-.22c.32,0,.65.05,1.07.05a8.41,8.41,0,0,0,.93-.05v.22c-.27,0-.37.11-.37.34V62c0,1.48-.77,1.95-2.23,1.95s-2.23-.47-2.23-1.84v-3Z"/><path id="Path_92" data-name="Path 92" class="cls-1" d="M55,59.12c0-.22-.09-.33-.37-.33v-.23h4.08c0,.45,0,.8.06,1.24h-.22c-.08-.44-.19-.59-.63-.59H56.21v1.52h1.07c.36,0,.42-.12.47-.4H58a6.19,6.19,0,0,0,0,.76,6.06,6.06,0,0,0,0,.76h-.22c0-.28-.11-.41-.47-.41H56.21v1.7H58c.43,0,.57-.15.71-.82H59a13.8,13.8,0,0,0-.1,1.52H54.64v-.22c.28,0,.37-.11.37-.34V59.13Z"/><path id="Path_93" data-name="Path 93" class="cls-1" d="M60.25,66a1,1,0,1,0,0-1.92,1,1,0,0,0-.95,1,1,1,0,0,0,1,1Zm-.78-1a.78.78,0,1,1,.78.8.77.77,0,0,1-.78-.77Zm.58.08h.19l.3.48h.18l-.31-.49a.29.29,0,0,0,.29-.29v0c0-.21-.13-.31-.4-.31h-.42v1.1h.17v-.48Zm0-.15v-.34h.23c.12,0,.24,0,.24.16s-.13.18-.27.18Z"/></g></svg>