<svg id="Layer_1" data-name="Layer 1" xmlns="http://www.w3.org/2000/svg" viewBox="0 0 84 66"><defs><style>.cls-1{fill:#fff;fill-rule:evenodd;}</style></defs><title>Icono-Liga-LaLiga</title><g id="Group_88" data-name="Group 88"><path id="Path_125" data-name="Path 125" class="cls-1" d="M18.92,20.4a20,20,0,0,0,1.54,8,38,38,0,0,0,4.72-1.7,48.23,48.23,0,0,0,4.63-1.86c0-.43-.48-1.62-.61-2.29a10.86,10.86,0,0,1,.33-5.22,20.41,20.41,0,0,0,.84-2.19c-.32-.35-3.62-2-4.31-2.37s-4-2.28-4.54-2.27a22.35,22.35,0,0,0-1.81,4.42,20.28,20.28,0,0,0-.79,5.48Z"/><path id="Path_126" data-name="Path 126" class="cls-1" d="M25.09,10.43c.3.31,5.57,3.3,6.41,3.78a7.77,7.77,0,0,0,2.31,1.14c.74-1.88,3.26-3.9,5.22-4.75.63-.27,2.2-.6,2.57-.81A29.62,29.62,0,0,0,41,5.93L39.86.15c-.23-.38-1.39.06-1.85.17A21.23,21.23,0,0,0,26.87,7.55c-.36.46-1.77,2.26-1.78,2.88Z"/><path id="Path_127" data-name="Path 127" class="cls-1" d="M18.5,31.06c.05.95,1.72,3.51,2.2,4.17a20.88,20.88,0,0,0,6.69,6.06c.64.37,3.78,2,4.56,1.79a17.88,17.88,0,0,0,.75-2.28c.39-1.31,2.18-6.64,2.15-7.24a11.1,11.1,0,0,1-5.94-4.21,18.37,18.37,0,0,1-1.2-2.17,32.52,32.52,0,0,0-4.64,1.88l-4.57,2Z"/><path id="Path_128" data-name="Path 128" class="cls-1" d="M55.38,27.19a97.3,97.3,0,0,0,10,.43c.32-.84-.12-4.32-.32-5.31a20.76,20.76,0,0,0-3.56-8.2A15.81,15.81,0,0,0,58.68,11a31.37,31.37,0,0,0-3.3,3.32c-.27.29-.54.51-.81.8l-1.65,1.74c-.29.32-.51.58-.81.89-.67.7-.17.5.88,1.81a11.52,11.52,0,0,1,1.27,2c1.25,2.5.88,3.45,1.12,5.58Z"/><path id="Path_129" data-name="Path 129" class="cls-1" d="M35.27,36.71c-.22.4-2.65,9.19-2.62,9.59.88.62,4.67.91,6,.91a21.07,21.07,0,0,0,6.63-1.13c1.19-.41,4.68-1.95,5.1-2.69-.11-.39-5.36-8.19-5.57-8.22s-1.42.8-1.94,1c-3.86,1.73-6.24.51-7.63.51Z"/><path id="Path_130" data-name="Path 130" class="cls-1" d="M42,2.68c-.07.43,1.21,9.15,1.41,9.82,1.56.13,2.68-.48,5.44.46a10.67,10.67,0,0,1,3,1.56c1.26.93.6,1.09,2.63-1.2l3.24-3.71a13.34,13.34,0,0,0,1.56-1.95A15.09,15.09,0,0,0,56,5.2a20.94,20.94,0,0,0-8.63-2.79c-1-.1-4.63-.22-5.37.27Z"/><path id="Path_131" data-name="Path 131" class="cls-1" d="M47.74,36.89c.07.4,5.68,8,5.85,8,.64-.09,2.84-2.26,3.31-2.75a21.43,21.43,0,0,0,4.51-7.62,21.16,21.16,0,0,0,1-5c-.05-.5-.53-.39-1.06-.43l-8.49-.67c-1.27,0,.26,1.48-2.22,5.39-1.36,2.14-2.32,2.35-2.91,3.11Z"/><path id="Path_132" data-name="Path 132" class="cls-1" d="M35.66,19.74l.72-.36a5.79,5.79,0,0,0-.4,2.36c.48.42,1.38.59,1.9,1l-2.05-.38a4.85,4.85,0,0,0-1.11,2.23l-.39-.71a6.53,6.53,0,0,0,1.4,4.31l-.1-.74a5.14,5.14,0,0,0,2.27,1.11L39.3,27l-1,1.86A4,4,0,0,0,40,30.54s-.06,0-.07,0,0,0-.06,0a.81.81,0,0,1-.22.07l-.42.1a7.94,7.94,0,0,0,4.53,0l-.74-.21c3-1.87,1.11-2.31.74-3.65.11.16.53.58.69.76s.6.63.8.81a5.29,5.29,0,0,0,2.17-1.08l-.09.76a6.9,6.9,0,0,0,1.43-4.26s0,0,0,.06l-.16.23c-.08.11-.14.23-.21.32a5.48,5.48,0,0,0-1-2.2l-2.09.38,1.87-.93a5.34,5.34,0,0,0-.41-2.4l.7.31A6.71,6.71,0,0,0,43.74,17l.54.59c-2.67.14-2.42.06-2.57,1.37,0,.39-.08.75-.12,1.14l-.23-1.58a1.67,1.67,0,0,0,0-.31s.07-.74-2.47-.59c.15-.33.31-.38.55-.62a6.83,6.83,0,0,0-3.73,2.72Zm2.73,3.06,1.19,3.81c4.25,0,3.84.36,4.2-.76l.95-3-3.19-2.26A15.8,15.8,0,0,0,40,21.7,15.53,15.53,0,0,1,38.39,22.8Z"/><path id="Path_133" data-name="Path 133" class="cls-1" d="M52.74,61.86c0,1.08-.13,1.56-1.05,1.81a1.68,1.68,0,0,1-2-.58l-2.84,0c.34,3.11,5.19,3.78,7.36,1.83,1.15-1,1.12-2.63,1.12-4.59V54.58H52.85v.88a3.77,3.77,0,0,0-1.7-1c-4.37-.93-6.11,5.44-2.75,7.73,2,1.34,3.58,0,4.35-.35Zm7.62-5c-2.34.76-1.44,4.82,1.25,3.94C64.09,60,63,56,60.36,56.89Zm-10.07-.17c-2.11.78-1.19,4.81,1.4,3.74C53.85,59.57,52.82,55.79,50.29,56.72Zm-21.17.18c-2.42.84-1.33,4.81,1.32,3.92C32.86,60,31.76,56,29.12,56.9Zm33.76,5.39,0,.75h2.55l0-8.47H62.94v.8A4.27,4.27,0,0,0,61,54.44a4.2,4.2,0,0,0-4.6,4.36c0,2.92,1.92,4.72,4.39,4.43a4,4,0,0,0,2.08-.94Zm-31.21,0V63l2.54,0,0-8.48H31.71v.81a3.71,3.71,0,0,0-1.95-1,4.23,4.23,0,0,0-4.57,4.28c-.09,2.88,1.75,4.76,4.3,4.53a4.69,4.69,0,0,0,2.19-.92Zm4.08.72h6.06l0-2.4H38.53l0-8.17H35.76V63ZM21.33,52.48H18.72L18.7,63h6V60.7H21.38l-.05-8.22ZM43,63l.34,0h2.21l0-8.46H43V63Zm.93-12.13a1.55,1.55,0,1,0,.77,3A1.55,1.55,0,0,0,43.91,50.91ZM21.33,52.48l.05,8.22H24.7V63h-6l0-10.54c-.17.11-.11.23-.11.52,0,2.6-.11,8.22,0,10a48.23,48.23,0,0,0,6.13.05,7.26,7.26,0,0,0-.06-2.46H21.44v-8c-.05-.22,0,0-.1-.18Z"/></g></svg>