<svg id="Layer_1" data-name="Layer 1" xmlns="http://www.w3.org/2000/svg" viewBox="0 0 25 25"><defs><style>.cls-1{fill:#fff;}</style></defs><title>Icono-Instagram-Footer-25x25</title><g id="AfPrYP.tif"><g id="Group_117" data-name="Group 117"><path id="Path_173" data-name="Path 173" class="cls-1" d="M25,12.55c0,1.81,0,3.62,0,5.43a7,7,0,0,1-7,7Q12.51,25,7,25a7,7,0,0,1-7-7Q0,12.52,0,7A7,7,0,0,1,7,0h.12q5.44,0,10.87,0A7,7,0,0,1,25,6.94v.18C25,8.92,25,10.73,25,12.55ZM12.54,2.37c-1.79,0-3.58,0-5.36,0A4.69,4.69,0,0,0,2.38,7a.81.81,0,0,0,0,.22q0,5.29,0,10.59A4.7,4.7,0,0,0,7,22.61a1.62,1.62,0,0,0,.22,0q5.33,0,10.65,0A4.7,4.7,0,0,0,22.63,18v-.22c0-3.53,0-7,0-10.58a4.7,4.7,0,0,0-4.57-4.83h-.23c-1.76,0-3.52,0-5.28,0Z"/><path id="Path_174" data-name="Path 174" class="cls-1" d="M19,12.47a6.52,6.52,0,0,1-13,0H6a6.52,6.52,0,0,1,13,0Zm-6.51,4.14a4.13,4.13,0,1,0-4.14-4.14,4.14,4.14,0,0,0,4.14,4.14Z"/><path id="Path_175" data-name="Path 175" class="cls-1" d="M19.19,7.35A1.44,1.44,0,0,1,17.71,6v0A1.46,1.46,0,0,1,19.12,4.4h.08a1.47,1.47,0,0,1,1.45,1.48h0a1.46,1.46,0,0,1-1.42,1.47Z"/></g></g></svg>